<!-- <svg width="24" height="24" viewBox="0 0 32 32" xmlns="http://www.w3.org/2000/svg">
    <g fill="none" fill-rule="evenodd">
        <circle cx="16" cy="16" r="16" fill="#0B1529" />
        <path fill="#FFF"
            d="M8.627 20.124l5.272 3.092v1.729L7 20.885v-10.59L16 5l9 5.295v10.59l-6.899
4.06v-1.73l5.271-3.091-1.36-.786.178-.309 1.343.776v-7.852l-6.82 4.042v11.56L16
28l-.714-.445v-11.56l-6.819-4.042v7.851l1.342-.775.178.31-1.36.785zm7.175-13.31L9.18 10.699 16
14.742l6.82-4.043-6.661-3.908v1.604h-.357V6.814zm0 2.592h.357v1.657h-.357V9.406zm0
2.668h.357v1.657l-.179.081-.178-.08v-1.658zm5.56 6.45l-.178.31-1.436-.83.179-.309
1.435.83zm-2.265-1.334l-.179.31-1.435-.83.02-.194.158-.114 1.436.828zm-8.46
1.334l1.435-.829.179.31-1.435.828-.179-.309zm2.266-1.334l1.435-.828.16.114.018.195-1.435.828-.178-.309z"
/>
    </g>
</svg> -->

<svg width="30" height="30" viewBox="0 0 24 24" id="Artwork" xmlns="http://www.w3.org/2000/svg"
    fill="#000000">
    <g id="SVGRepo_bgCarrier" stroke-width="0"></g>
    <g id="SVGRepo_tracerCarrier" stroke-linecap="round" stroke-linejoin="round"></g>
    <g id="SVGRepo_iconCarrier">
        <rect x="10.75" y="10.61" width="2.57" height="2.57"
            transform="translate(-4.89 12) rotate(-45.01)" style="fill:#4285f4"></rect>
        <polygon
            points="17.87 11.89 17.8 11.95 14.03 15.73 12.97 14.68 15.77 11.89 10.06 6.18 10.06 4.08 10.13 4.15 17.87 11.89"
            style="fill:#669df6;fill-rule:evenodd"></polygon>
        <polygon
            points="10.06 6.18 4.36 11.89 11.11 18.65 10.06 19.7 10 19.63 2.25 11.89 10.06 4.08 10.06 6.18"
            style="fill:#aecbfa;fill-rule:evenodd"></polygon>
        <polygon
            points="13.94 17.6 13.94 19.7 13.88 19.63 6.13 11.9 9.97 8.05 11.03 9.11 8.23 11.9 13.94 17.6"
            style="fill:#669df6;fill-rule:evenodd"></polygon>
        <polygon
            points="13.94 17.6 19.64 11.9 12.89 5.14 13.94 4.08 14 4.15 21.75 11.9 21.68 11.96 13.94 19.7 13.94 17.6"
            style="fill:#4285f4"></polygon>
    </g>
</svg>