<svg height="24" width="24" version="1.1" id="Layer_1" xmlns="http://www.w3.org/2000/svg"
	xmlns:xlink="http://www.w3.org/1999/xlink" viewBox="0 0 512 512" xml:space="preserve">
	<path style="fill:#F1F1F1;" d="M483.46,381.459H28.54c-15.762,0-28.54-12.778-28.54-28.54V159.081
	c0-15.762,12.778-28.54,28.54-28.54H483.46c15.762,0,28.54,12.778,28.54,28.54v193.838C512,368.681,499.222,381.459,483.46,381.459z
	" />
	<path style="fill:#D7D7D7;" d="M483.46,130.541H256v250.917h227.46c15.762,0,28.54-12.778,28.54-28.54V159.081
	C512,143.319,499.222,130.541,483.46,130.541z" />
	<g>
		<path style="fill:#444444;" d="M80.243,281.804l22.146-59.336h13.204l22.064,59.336H120.44l-3.593-11.617h-15.795l-3.511,11.617
		H80.243z M108.991,239.432l-5.515,19.89h10.781L108.991,239.432z" />
		<path style="fill:#444444;" d="M171.247,281.804H142.08v-59.336h34.432c8.358,0,13.539,7.689,13.539,15.21
		c0,5.515-2.842,11.198-8.525,13.706c6.77,2.006,11.031,6.936,11.031,15.21C192.558,277.291,182.948,281.804,171.247,281.804z
		 M158.377,236.34v9.109h11.115c2.173,0,4.43-0.919,4.43-4.597c0-3.259-1.839-4.513-3.928-4.513h-11.617V236.34z M171.833,258.153
		h-13.456v9.945h12.87c2.675,0,4.764-1.755,4.764-4.847C176.011,260.325,174.256,258.153,171.833,258.153z" />
		<path style="fill:#444444;" d="M225.062,222.133c10.531,0,18.887,5.181,22.648,12.954l-12.452,8.859
		c-1.922-5.767-6.853-7.355-10.531-7.355c-8.19,0-11.784,8.106-11.784,15.545c0,8.273,4.43,15.712,11.951,15.712
		c3.761,0,8.44-1.922,10.112-7.27l13.288,7.939c-3.342,8.775-14.29,13.79-23.735,13.79c-16.548,0-28.164-15.461-28.164-30.671
		C196.397,237.176,207.01,222.133,225.062,222.133z" />
		<path style="fill:#444444;" d="M253.471,265.842v-14.207h26.159v14.207H253.471L253.471,265.842z" />
		<path style="fill:#444444;" d="M327.93,267.597v14.207h-38.694v-14.207h11.867v-30.254c-1.839,2.591-9.276,7.187-13.789,7.187
		v-14.541c6.017,0,13.623-7.605,13.789-7.939h16.214v45.547H327.93L327.93,267.597z" />
		<path style="fill:#444444;" d="M332.94,281.804c0-15.378,1.839-22.398,14.542-28.415c6.936-3.259,12.954-6.184,12.954-12.285
		c0-4.011-2.59-5.265-5.432-5.265c-4.346,0-9.109,2.925-12.285,6.017l-9.778-10.614c4.43-5.014,13.456-9.444,24.32-9.444
		c13.539,0,21.31,6.853,21.31,19.054c0,9.194-4.345,13.372-11.784,17.717c-4.764,2.758-10.195,5.433-10.195,9.026h22.063v14.207
		H332.94V281.804z" />
		<path style="fill:#444444;" d="M385.585,272.861l8.106-11.031c0.668,0.668,3.009,6.184,10.614,6.184
		c3.761,0,7.437-1.337,7.437-4.847c0-4.346-5.515-5.683-15.377-5.683h-2.758v-13.121h2.675c7.355,0,13.956-1.421,13.956-5.6
		c0-3.092-3.511-3.176-4.43-3.176c-6.268,0-9.443,3.511-10.948,5.433l-10.029-11.784c4.429-4.931,13.372-7.522,20.893-7.522
		c12.368,0,21.562,7.02,21.562,16.213c0,6.436-4.513,10.864-10.781,12.118c7.27,1.17,11.784,7.856,11.784,15.294
		c0,12.452-12.536,17.215-23.651,17.215C395.782,282.556,389.429,279.548,385.585,272.861z" />
	</g>
	<g>
		<path style="fill:#67B5F8;" d="M512,159.081c0-15.762-12.778-28.54-28.54-28.54H28.54c-15.762,0-28.54,12.778-28.54,28.54v27.354
		h512V159.081z" />
		<path style="fill:#67B5F8;" d="M0,325.565v27.354c0,15.762,12.778,28.54,28.54,28.54H483.46c15.762,0,28.54-12.778,28.54-28.54
		v-27.354H0z" />
	</g>
	<g>
		<path style="fill:#3D6DFA;"
			d="M512,159.081c0-15.762-12.778-28.54-28.54-28.54H256c0,11.374,0,55.894,0,55.894h256V159.081z" />
		<path style="fill:#3D6DFA;"
			d="M512,352.919c0,15.762-12.778,28.54-28.54,28.54H256c0-11.374,0-55.894,0-55.894h256V352.919z" />
	</g>
</svg>