<svg width="18" height="18" viewBox="0 0 48 48" xmlns="http://www.w3.org/2000/svg" className="fill-current" fill="none">
    <g id="SVGRepo_bgCarrier" strokeWidth="0"></g>
    <g id="SVGRepo_tracerCarrier" strokeLinecap="round" strokeLinejoin="round"></g>
    <g id="SVGRepo_iconCarrier">
        <path className="a"
            d="M8.66,12.5V10.29h0A1.93,1.93,0,0,1,10.6,8.35h8.85c2,0,5.56,3.69,7.32,3.78h15.1a1.63,1.63,0,0,1,1.63,1.63V33.55h0a1.94,1.94,0,0,1-2,1.94H39.34V17.92a1.62,1.62,0,0,0-1.62-1.63H22.61c-1.75-.1-5.3-3.79-7.32-3.79H6.45A1.94,1.94,0,0,0,4.5,14.44h0V37.71a1.94,1.94,0,0,0,1.94,1.94h31a1.93,1.93,0,0,0,1.94-1.94h0V21">
        </path>
    </g>
</svg>