<!-- <svg fill="#000000" width="24" height="24" viewBox="0 0 24 24" id="shipping-box" data-name="Flat Line"
    xmlns="http://www.w3.org/2000/svg" class="icon flat-line">
    <path id="secondary" d="M16,5H12v6H8V5H4A1,1,0,0,0,3,6V18a1,1,0,0,0,1,1H16a1,1,0,0,0,1-1V6A1,1,0,0,0,16,5Z"
        style="fill: rgb(44, 169, 188); stroke-width: 2;"></path>
    <path id="primary" d="M17,17v1a1,1,0,0,1-1,1H4a1,1,0,0,1-1-1V6A1,1,0,0,1,4,5H15"
        style="fill: none; stroke: rgb(0, 0, 0); stroke-linecap: round; stroke-linejoin: round; stroke-width: 2;">
    </path>
    <path id="primary-2" data-name="primary" d="M12,11H8V5h4Zm9-2H17m4,4H16"
        style="fill: none; stroke: rgb(0, 0, 0); stroke-linecap: round; stroke-linejoin: round; stroke-width: 2;">
    </path>
</svg> -->
<svg width="24" height="24" viewBox="0 0 1024 1024" class="icon" version="1.1"
    xmlns="http://www.w3.org/2000/svg" fill="#000000">
    <g id="SVGRepo_bgCarrier" stroke-width="0"></g>
    <g id="SVGRepo_tracerCarrier" stroke-linecap="round" stroke-linejoin="round"></g>
    <g id="SVGRepo_iconCarrier">
        <path
            d="M862.90625 932.1875H162.96875c-38.71875 0-70.125-31.40625-70.125-70.125V432.5c0-38.71875 31.40625-70.125 70.125-70.125h699.9375c38.71875 0 70.125 31.40625 70.125 70.125v429.5625c0 38.71875-31.40625 70.125-70.125 70.125z"
            fill="#00AAFF"></path>
        <path
            d="M784.0625 227.5625H239.9375c-32.4375 0-58.78125 26.34375-58.78125 58.78125v45.9375h661.6875v-45.9375c0-32.53125-26.34375-58.78125-58.78125-58.78125z"
            fill="#FC592D"></path>
        <path
            d="M721.25 91.34375H306.59375c-32.4375 0-58.78125 26.34375-58.78125 58.78125v45.9375H780.125v-45.9375c-0.09375-32.4375-26.34375-58.78125-58.875-58.78125z"
            fill="#FFCE00"></path>
    </g>
</svg>